<svg width="720" height="620" viewBox="0 0 720 620" fill="none" xmlns="http://www.w3.org/2000/svg"><rect width="720" height="620" rx="34" fill="#0B0D1C"/><path d="M56 104h608M56 206h608M56 308h608M56 410h608M56 512h608" stroke="white" stroke-opacity=".04"/><text x="60" y="74" fill="#B9F7FF" font-family="Arial" font-size="18" letter-spacing="4">CHARACTER GATE</text><text x="60" y="118" fill="#F4F0E6" font-family="Arial" font-size="34" font-weight="700">30 秒創角嚮導</text><rect x="60" y="158" width="194" height="250" rx="24" fill="#12152B" stroke="#8DE7D2" stroke-opacity=".3"/><text x="92" y="206" fill="#FFE9A8" font-family="Arial" font-size="22" font-weight="700">職業卡</text><circle cx="157" cy="280" r="50" fill="#132530" stroke="#8DE7D2"/><text x="134" y="288" fill="#B9F7FF" font-family="Arial" font-size="24">遊俠</text><rect x="284" y="158" width="194" height="250" rx="24" fill="#12152B" stroke="#E7C064" stroke-opacity=".3"/><text x="316" y="206" fill="#FFE9A8" font-family="Arial" font-size="22" font-weight="700">屬性骰</text><text x="330" y="305" fill="#F4F0E6" font-family="Arial" font-size="58" font-weight="700">4d6</text><rect x="508" y="158" width="152" height="250" rx="24" fill="#12152B" stroke="#B879FF" stroke-opacity=".3"/><text x="536" y="206" fill="#FFE9A8" font-family="Arial" font-size="22" font-weight="700">背景</text><path d="M540 256h80M540 292h92M540 328h70" stroke="#F4F0E6" stroke-opacity=".28" stroke-width="10" stroke-linecap="round"/><rect x="60" y="450" width="600" height="84" rx="30" fill="#171C37" stroke="#E7C064" stroke-opacity=".32"/><text x="92" y="502" fill="#F4F0E6" font-family="Arial" font-size="24" font-weight="700">問題式引導：你為什麼踏入異界裂隙？</text></svg>